<svg data-v-423bf9ae="" xmlns="http://www.w3.org/2000/svg" viewBox="0 0 321.6360085600564 163" class="iconAbove"><!----><!----><!----><g data-v-423bf9ae="" id="98c851c5-5f22-498f-b67e-579233785961" fill="black" transform="matrix(4.089979794714928,0,0,4.089979794714928,-1.7586951255756276,51.30265542113166)"><path d="M15.50 22.78L15.05 23.69L10.09 23.69L10.09 22.90L11.41 21.87L11.41 15.15L7.94 23.67L6.72 23.67L3.19 15.08L3.19 22.13L4.75 22.75L4.30 23.66L0.67 23.66L0.67 22.88L1.99 21.84L1.99 14.21L0.43 13.55L0.90 12.64L4.83 12.64L8.02 20.43L11.19 12.64L15.27 12.64L15.27 13.43L13.94 14.46L13.94 22.32L15.50 22.78ZM24.68 16.07L24.68 16.86L21.10 23.62L17.81 27.31L16.93 26.63L16.93 26.63Q17.96 25.38 18.38 24.49L18.38 24.49L18.38 24.49Q18.80 23.60 18.86 22.46L18.86 22.46L17.25 18.56L15.89 17.78L15.89 17.00L18.98 15.82L19.52 17.93L21.04 21.66L22.74 18.35L20.73 17.00L21.18 16.09L24.68 16.07ZM40.56 22.78L40.11 23.69L35.15 23.69L35.15 22.90L36.47 21.87L36.47 15.15L33.00 23.67L31.78 23.67L28.25 15.08L28.25 22.13L29.81 22.75L29.36 23.66L25.73 23.66L25.73 22.88L27.05 21.84L27.05 14.21L25.49 13.55L25.96 12.64L29.89 12.64L33.08 20.43L36.25 12.64L40.33 12.64L40.33 13.43L39.00 14.46L39.00 22.32L40.56 22.78ZM46.38 15.95L46.38 15.95Q47.42 15.95 48.23 16.43L48.23 16.43L48.23 16.43Q49.04 16.91 49.50 17.75L49.50 17.75L49.50 17.75Q49.95 18.59 49.95 19.61L49.95 19.61L49.95 19.61Q49.95 20.72 49.24 21.68L49.24 21.68L49.24 21.68Q48.52 22.64 47.45 23.21L47.45 23.21L47.45 23.21Q46.38 23.77 45.39 23.77L45.39 23.77L45.39 23.77Q44.37 23.77 43.55 23.29L43.55 23.29L43.55 23.29Q42.73 22.81 42.27 21.97L42.27 21.97L42.27 21.97Q41.82 21.13 41.82 20.10L41.82 20.10L41.82 20.10Q41.82 19.00 42.53 18.04L42.53 18.04L42.53 18.04Q43.25 17.08 44.32 16.51L44.32 16.51L44.32 16.51Q45.39 15.95 46.38 15.95L46.38 15.95ZM45.57 17.57L45.57 17.57Q44.98 17.57 44.68 18.04L44.68 18.04L44.68 18.04Q44.38 18.51 44.38 19.43L44.38 19.43L44.38 19.43Q44.38 20.61 44.86 21.39L44.86 21.39L44.86 21.39Q45.33 22.16 46.20 22.16L46.20 22.16L46.20 22.16Q46.77 22.16 47.08 21.68L47.08 21.68L47.08 21.68Q47.38 21.20 47.38 20.27L47.38 20.27L47.38 20.27Q47.38 19.10 46.90 18.33L46.90 18.33L46.90 18.33Q46.42 17.57 45.57 17.57L45.57 17.57ZM61.00 22.72L60.54 23.63L57.36 23.63L57.36 19.15L57.36 19.15Q57.36 18.49 57.16 18.22L57.16 18.22L57.16 18.22Q56.95 17.95 56.45 17.95L56.45 17.95L56.45 17.95Q55.71 17.95 54.98 18.42L54.98 18.42L54.98 22.30L56.24 22.72L55.78 23.63L51.35 23.63L51.35 22.85L52.60 21.80L52.60 18.62L51.35 17.84L51.35 17.05L54.26 15.82L54.81 17.44L56.55 16.06L56.55 16.06Q56.92 15.95 57.40 15.95L57.40 15.95L57.40 15.95Q58.46 15.95 59.10 16.53L59.10 16.53L59.10 16.53Q59.74 17.11 59.74 18.10L59.74 18.10L59.74 22.30L61.00 22.72ZM66.46 15.95L66.46 15.95Q67.93 15.95 68.73 17.07L68.73 17.07L68.73 17.07Q69.54 18.19 69.51 20.17L69.51 20.17L64.47 20.17L64.47 20.17Q64.61 21.03 65.07 21.54L65.07 21.54L65.07 21.54Q65.53 22.05 66.28 22.05L66.28 22.05L66.28 22.05Q67.26 22.05 69.09 21.07L69.09 21.07L69.51 21.87L67.38 23.56L67.38 23.56Q66.56 23.77 65.46 23.77L65.46 23.77L65.46 23.77Q64.44 23.77 63.62 23.29L63.62 23.29L63.62 23.29Q62.80 22.81 62.35 21.97L62.35 21.97L62.35 21.97Q61.89 21.13 61.89 20.10L61.89 20.10L61.89 20.10Q61.89 19.00 62.61 18.04L62.61 18.04L62.61 18.04Q63.32 17.08 64.39 16.51L64.39 16.51L64.39 16.51Q65.46 15.95 66.46 15.95L66.46 15.95ZM65.69 17.57L65.69 17.57Q65.07 17.57 64.76 17.98L64.76 17.98L64.76 17.98Q64.46 18.40 64.43 19.25L64.43 19.25L67.10 19.25L67.10 19.25Q66.99 18.38 66.69 17.98L66.69 17.98L66.69 17.98Q66.39 17.57 65.67 17.57L65.67 17.57L65.69 17.57ZM79.07 16.07L79.07 16.86L75.49 23.62L72.20 27.31L71.32 26.63L71.32 26.63Q72.35 25.38 72.77 24.49L72.77 24.49L72.77 24.49Q73.19 23.60 73.25 22.46L73.25 22.46L71.64 18.56L70.28 17.78L70.28 17.00L73.37 15.82L73.91 17.93L75.43 21.66L77.13 18.35L75.12 17.00L75.57 16.09L79.07 16.07Z"></path></g><!----><g data-v-423bf9ae="" id="6cbf02db-0cc6-4748-8155-42b670838280" transform="matrix(1.6533478721861048,0,0,1.6533478721861048,78.3463049249881,-38.06424137059156)" stroke="none" fill="black"><path d="M94.106 70.281h-2.991V31.999H9.979v-2.992h84.127v41.274z"></path><path d="M100 63.197h-2.991V26.049H18.367v-2.992H100v40.14z"></path><path d="M52.889 77.452c4.61-3.641 7.537-9.837 7.537-16.998 0-11.271-7.546-20.408-16.85-20.408-9.306 0-16.85 9.137-16.85 20.408 0 7.159 2.902 13.337 7.508 16.979l.046.059H.079V35.554h87.486v41.938h-34.73l.054-.04zm28.255-6.384v-9.466H78.44v6.762H64.915v2.704h16.229zm-58.155 0v-2.704H9.465v-6.762H6.76v9.466h16.229zM81.144 51.46v-9.466H64.915v2.704h13.524v6.764l2.705-.002zm-71.679 0v-6.763h13.524v-2.705H6.76v9.467l2.705.001z"></path></g><!----></svg>